<svg width="1424" height="634" viewBox="0 0 1424 634" fill="none" xmlns="http://www.w3.org/2000/svg">
<path d="M156.933 4C138.235 25.8167 121.397 51.2811 106.061 75.2793C99.1385 86.1121 104.644 89.2301 94.7126 84.5093C71.871 73.6513 73.0485 66.1112 59.391 81.9133C31.9035 113.717 57.3671 66.2496 44.4692 51.4475C42.4646 49.1469 -13.1711 26.8125 9.36362 20.621C41.3631 11.8291 78.5293 15.9471 111.912 8.43467C115.742 7.57282 132.879 13.7944 134.314 9.8408" stroke="white" stroke-width="7" stroke-linecap="round"/>
<path d="M140.676 5.62241C140.604 5.1933 139.925 6.19888 139.734 6.59589C129.703 27.4029 120.98 48.7742 110.204 69.2763C107.533 74.3589 131.022 19.5068 124.557 12.3826C118.772 6.009 117.58 27.692 114.347 35.4393C108.442 49.5894 103.265 64.2987 95.9498 77.9113C91.4567 86.2728 102.282 60.1889 105.099 51.2311C105.412 50.236 113.754 20.1451 109.419 20.5489C104.55 21.0024 96.3571 44.1157 95.0859 46.7243C90.3055 56.534 79.3094 86.224 79.202 75.4776C79.1404 69.3083 97.6119 10.2085 85.4063 31.7978C81.2782 39.0997 58.5401 81.0146 61.1584 73.4045C63.2966 67.1894 81.6325 11.8717 70.6612 34.3938C66.2317 43.4867 41.5852 95.3718 55.6216 58.9467C60.7982 45.5131 75.1486 6.25087 56.4266 39.5495C39.7899 69.1392 54.8316 17.5537 49.0246 26.1373C27.1708 58.4405 40.1483 17.9183 39.7573 18.1693C33.3613 22.2754 25.2719 40.7038 23.5789 33.7087C18.8217 14.0529 23.0043 32.241 15.6075 29.0938C11.6644 27.416 14.7075 15.0798 8.85343 25.4162" stroke="white" stroke-width="7" stroke-linecap="round"/>
<path d="M102.861 16.655C99.7656 21.8744 85.9073 47.9727 91.1195 29.4543C95.8095 12.7914 93.1205 19.785 83.6586 27.1108C76.9424 32.3106 81.3794 12.6548 78.6127 15.2309C72.5872 20.8411 67.7266 27.6012 59.7444 30.9325" stroke="white" stroke-width="7" stroke-linecap="round"/>
<path d="M121.444 28.0017C108.738 36.1633 96.3255 44.7109 83.8505 53.1655C69.6851 62.7657 76.3878 57.8541 83.0778 52.2678C94.3845 42.8263 125.815 14.1112 119.741 26.9882C113.229 40.7943 84.1676 48.3488 73.3167 60.622C66.3389 68.5144 91.9482 49.3485 99.6827 42.0749C111.292 31.1576 71.9062 58.833 57.8945 67.036C46.7585 73.5553 101.414 40.9291 88.6758 44.1308C48.1119 54.3262 92.1507 44.3778 65.1167 54.3527C54.467 58.2823 84.8008 43.4254 95.22 39.0054C104.406 35.1088 117.573 29.3371 99.5881 36.1965C84.9344 41.7853 70.0637 46.9688 55.466 52.6587C48.4774 55.3828 69.8239 47.9721 76.5336 44.71C110.387 28.2508 63.797 45.6468 52.5014 48.8509C47.6199 50.2355 47.3607 62.9241 52.4699 62.9241" stroke="#ABABAB" stroke-width="7" stroke-linecap="round"/>
<path d="M57.0115 62.4028C55.7164 67.605 58.3431 59.3267 59.2034 58.1606C64.4287 51.0783 83.3669 48.0484 91.4513 44.1308C95.5871 42.1267 118.739 29.5927 101.622 34.85C86.9937 39.3433 72.1106 43.4002 57.8631 48.8509" stroke="#ABABAB" stroke-width="7" stroke-linecap="round"/>
<path d="M156.393 8.95047C138.175 32.3691 105.361 112.861 110.968 84.5456" stroke="#858585" stroke-width="7" stroke-linecap="round"/>
<path d="M151.977 6.63339C141.42 21.9807 112.931 35.1233 97.3684 45.9274C88.8186 51.8631 60.6479 61.4946 71.2208 63.1125" stroke="#858585" stroke-width="7" stroke-linecap="round"/>
<path d="M156.709 9.52976C190.41 -8.52091 13.53 65.0105 46.6154 46.024" stroke="#858585" stroke-width="7" stroke-linecap="round"/>
<path d="M157.024 8.95047C127.351 8.95047 97.2217 14.0438 67.7507 16.835C54.0859 18.1292 25.4787 13.6579 14.4392 20.2463" stroke="#858585" stroke-width="7" stroke-linecap="round"/>
<path d="M50.4006 50.6581C39.7576 41.2015 26.3292 30.3119 13.1772 24.0116" stroke="#858585" stroke-width="7" stroke-linecap="round"/>
<path d="M48.8237 44.2862C48.9588 49.9912 57.2926 77.4718 53.8709 79.0426" stroke="#858585" stroke-width="7" stroke-linecap="round"/>
<path d="M106.867 97C99.4224 83.3297 82.7289 71.865 71.2207 60.7954" stroke="#858585" stroke-width="7" stroke-linecap="round"/>
<path d="M69.3279 61.6644C65.1971 66.2159 58.9349 85.0833 53.5553 81.07" stroke="#858585" stroke-width="7" stroke-linecap="round"/>
<path d="M42.3711 107.314C40.6811 114.919 39.5837 122.341 38.6997 130.076" stroke="#858585" stroke-width="7" stroke-linecap="round"/>
<path d="M35.0284 146.964C34.1364 152.986 35.3315 156.685 37.2312 162.384" stroke="#858585" stroke-width="7" stroke-linecap="round"/>
<path d="M40.1683 188.083C37.5624 194.598 42.6406 202.351 45.3082 207.909" stroke="#858585" stroke-width="7" stroke-linecap="round"/>
<path d="M51.1824 229.937L64.3992 249.762" stroke="#858585" stroke-width="7" stroke-linecap="round"/>
<path d="M82.0215 276.93C83.8588 281.707 91.0615 283.862 95.2383 285.741" stroke="#858585" stroke-width="7" stroke-linecap="round"/>
<path d="M111.392 285.007C116.151 284.756 119.693 282.692 123.875 280.601" stroke="#858585" stroke-width="7" stroke-linecap="round"/>
<path d="M136.357 258.573C138.125 252.878 138.762 246.776 140.029 240.951" stroke="#858585" stroke-width="7" stroke-linecap="round"/>
<path d="M121.672 230.671C117.845 227.227 111.45 229.299 106.987 229.937" stroke="#858585" stroke-width="7" stroke-linecap="round"/>
<path d="M87.8958 256.37C87.3214 257.842 86.8567 259.273 86.4272 260.776" stroke="#858585" stroke-width="7" stroke-linecap="round"/>
<path d="M91.5669 301.161C94.9903 311.097 98.7984 320.105 104.049 329.063" stroke="#858585" stroke-width="7" stroke-linecap="round"/>
<path d="M119.469 350.357C121.898 354.442 125.007 356.179 129.015 358.434" stroke="#858585" stroke-width="7" stroke-linecap="round"/>
<path d="M145.903 376.79C151.746 382.368 157.916 386.327 164.994 390.007" stroke="#858585" stroke-width="7" stroke-linecap="round"/>
<path d="M190.693 399.553C196.763 399.957 203.061 402.115 209.05 403.224" stroke="#858585" stroke-width="7" stroke-linecap="round"/>
<path d="M239.155 409.098C246.873 409.098 254.268 407.938 261.917 406.895" stroke="#858585" stroke-width="7" stroke-linecap="round"/>
<path d="M281.008 401.755C288.695 400.084 295.785 396.645 303.036 393.678" stroke="#858585" stroke-width="7" stroke-linecap="round"/>
<path d="M324.33 390.007C332.159 388.569 339.138 386.819 346.358 383.399" stroke="#858585" stroke-width="7" stroke-linecap="round"/>
<path d="M371.148 377.131C380.303 374.722 389.401 372.262 398.62 370.067" stroke="#858585" stroke-width="7" stroke-linecap="round"/>
<path d="M416.672 364.573C426.973 359.694 438.1 356.501 448.853 352.8" stroke="#858585" stroke-width="7" stroke-linecap="round"/>
<path d="M466.906 342.596C474.086 339.006 482.024 337.099 489.667 334.747" stroke="#858585" stroke-width="7" stroke-linecap="round"/>
<path d="M514.784 325.328C520.812 320.397 531.067 319.879 538.331 318.264" stroke="#858585" stroke-width="7" stroke-linecap="round"/>
<path d="M564.232 311.2C573.921 309.71 583.346 307.574 593.274 306.491" stroke="#858585" stroke-width="7" stroke-linecap="round"/>
<path d="M621.53 300.997C631.481 300.997 641.412 300.543 651.356 300.212" stroke="#858585" stroke-width="7" stroke-linecap="round"/>
<path d="M681.182 299.427C689.388 297.163 698.71 298.052 707.083 297.857" stroke="#858585" stroke-width="7" stroke-linecap="round"/>
<path d="M736.125 301.782C735.482 300.497 739.155 301.157 739.351 301.171C747.96 301.776 756.567 302.623 765.166 303.351" stroke="#858585" stroke-width="7" stroke-linecap="round"/>
<path d="M802.056 315.125C803.12 310.867 831.502 322.312 833.451 322.974" stroke="#858585" stroke-width="7" stroke-linecap="round"/>
<path d="M853.859 331.608C860.663 333.719 867.493 335.629 874.266 337.887" stroke="#858585" stroke-width="7" stroke-linecap="round"/>
<path d="M905.662 349.66C912.707 350.443 920.721 356.013 926.854 359.079" stroke="#858585" stroke-width="7" stroke-linecap="round"/>
<path d="M949.616 370.067C957.317 370.709 965.616 373.905 973.163 375.562" stroke="#858585" stroke-width="7" stroke-linecap="round"/>
<path d="M990.431 381.056C997.563 385.919 1005.57 389.6 1013.19 393.614" stroke="#858585" stroke-width="7" stroke-linecap="round"/>
<path d="M1281.63 519.197C1286.09 524.436 1290.61 529.569 1294.97 534.895" stroke="#858585" stroke-width="7" stroke-linecap="round"/>
<path d="M1311.45 552.948L1335 576.495" stroke="#858585" stroke-width="7" stroke-linecap="round"/>
<path d="M1356.19 594.547C1358.5 599.173 1371.74 604.467 1375.81 607.106" stroke="#858585" stroke-width="7" stroke-linecap="round"/>
<path d="M1034.87 411.033C1043.67 414.696 1052.99 422.135 1062.34 426.29" stroke="#858585" stroke-width="7" stroke-linecap="round"/>
<path d="M1079.43 436.665C1086.44 439.913 1093.7 442.743 1100.79 445.819" stroke="#858585" stroke-width="7" stroke-linecap="round"/>
<path d="M1116.34 456.671C1122.83 458.127 1128 463.49 1133.23 467.229" stroke="#858585" stroke-width="7" stroke-linecap="round"/>
<path d="M1263.63 403.335C1262.71 400.278 1268.95 396.572 1270.59 395.11" stroke="#858585" stroke-width="7" stroke-linecap="round"/>
<path d="M1306.97 405.549C1311.48 409.862 1312.67 414.665 1313.61 420.734" stroke="#858585" stroke-width="7" stroke-linecap="round"/>
<path d="M1305.7 438.132C1304.85 442.15 1301.54 445.575 1299.37 448.888" stroke="#858585" stroke-width="7" stroke-linecap="round"/>
<path d="M1284.19 464.389C1275.8 468.88 1268.27 476.49 1261.41 483.053" stroke="#858585" stroke-width="7" stroke-linecap="round"/>
<path d="M1249.71 404.284C1247.77 399.167 1241.16 394.306 1236.1 393.528" stroke="#858585" stroke-width="7" stroke-linecap="round"/>
<path d="M1220.6 392.579C1213.54 392.579 1208.08 396.057 1204.47 402.069" stroke="#858585" stroke-width="7" stroke-linecap="round"/>
<path d="M1203.52 425.795C1201.93 431.983 1208.51 439.581 1211.11 444.459" stroke="#858585" stroke-width="7" stroke-linecap="round"/>
<path d="M1222.82 457.745C1224.88 463.512 1234.37 470.096 1238.32 474.195" stroke="#858585" stroke-width="7" stroke-linecap="round"/>
<path d="M1259.2 492.859C1264.23 497.209 1268.77 502.04 1273.43 506.778" stroke="#858585" stroke-width="7" stroke-linecap="round"/>
<path d="M1146.9 474.828C1152.38 478.437 1159.32 480.509 1165.24 483.369" stroke="#858585" stroke-width="7" stroke-linecap="round"/>
<path d="M1186.44 489.696C1191.66 491.821 1197.75 492.416 1203.21 493.808" stroke="#858585" stroke-width="7" stroke-linecap="round"/>
<path d="M1223.45 496.655C1229.64 494.851 1238.58 495.89 1244.96 495.39" stroke="#858585" stroke-width="7" stroke-linecap="round"/>
<path d="M1285.66 392.027C1290.47 392.753 1294.88 394.021 1299.59 395.32" stroke="#858585" stroke-width="7" stroke-linecap="round"/>
<path d="M1392.3 618.094C1398.13 624.578 1412.07 626.947 1419.77 629.868" stroke="#858585" stroke-width="7" stroke-linecap="round"/>
</svg>
