<svg width="882" height="487" viewBox="0 0 882 487" fill="none" xmlns="http://www.w3.org/2000/svg">
<rect x="1.5" y="1.5" width="878.536" height="484" rx="18.5" fill="white" stroke="#EE79C6" stroke-width="3"/>
<path d="M20 1.5H861.536C871.753 1.5 880.036 9.78273 880.036 20V51.5H1.5V20C1.5 9.78273 9.78273 1.5 20 1.5Z" fill="#FEC5EB" stroke="#EE79C6" stroke-width="3"/>
<path d="M66 22.0438C66 32.2545 50.7095 40.5194 50.0583 40.8607C49.8867 40.9522 49.6949 41 49.5 41C49.3051 41 49.1133 40.9522 48.9417 40.8607C48.2905 40.5194 33 32.2545 33 22.0438C33.0027 19.6461 33.9659 17.3473 35.6783 15.6519C37.3906 13.9564 39.7123 13.0027 42.1339 13C45.1761 13 47.8397 14.2953 49.5 16.4848C51.1603 14.2953 53.8239 13 56.8661 13C59.2877 13.0027 61.6094 13.9564 63.3217 15.6519C65.0341 17.3473 65.9973 19.6461 66 22.0438Z" fill="#EE79C6"/>
<path d="M113 22.0438C113 32.2545 97.7095 40.5194 97.0583 40.8607C96.8867 40.9522 96.6949 41 96.5 41C96.3051 41 96.1133 40.9522 95.9417 40.8607C95.2905 40.5194 80 32.2545 80 22.0438C80.0027 19.6461 80.9659 17.3473 82.6783 15.6519C84.3906 13.9564 86.7123 13.0027 89.1339 13C92.1761 13 94.8397 14.2953 96.5 16.4848C98.1603 14.2953 100.824 13 103.866 13C106.288 13.0027 108.609 13.9564 110.322 15.6519C112.034 17.3473 112.997 19.6461 113 22.0438Z" fill="#EE79C6"/>
<path d="M150.612 13C147.754 13 145.218 14.1102 143.5 16.0183C141.782 14.1102 139.246 13 136.388 13C133.899 13.003 131.513 13.9774 129.753 15.7095C127.993 17.4417 127.003 19.7901 127 22.2398C127 32.3671 142.051 40.4589 142.691 40.7991C142.939 40.931 143.217 41 143.5 41C143.783 41 144.061 40.931 144.309 40.7991C144.949 40.4589 160 32.3671 160 22.2398C159.997 19.7901 159.007 17.4417 157.247 15.7095C155.487 13.9774 153.101 13.003 150.612 13ZM149.831 32.9299C147.85 34.5845 145.732 36.0736 143.5 37.3818C141.268 36.0736 139.15 34.5845 137.169 32.9299C134.086 30.3274 130.414 26.3585 130.414 22.2398C130.414 20.6803 131.043 19.1848 132.164 18.0821C133.284 16.9794 134.803 16.3599 136.388 16.3599C138.92 16.3599 141.039 17.6759 141.92 19.7954C142.048 20.1044 142.267 20.3688 142.548 20.555C142.83 20.7411 143.161 20.8405 143.5 20.8405C143.839 20.8405 144.17 20.7411 144.452 20.555C144.733 20.3688 144.952 20.1044 145.08 19.7954C145.961 17.6759 148.08 16.3599 150.612 16.3599C152.197 16.3599 153.716 16.9794 154.836 18.0821C155.957 19.1848 156.586 20.6803 156.586 22.2398C156.586 26.3585 152.914 30.3274 149.831 32.9299Z" fill="#EE79C6"/>
</svg>
